<?xml version="1.0" encoding="utf-8"?>
<!-- Generator: Adobe Illustrator 25.1.0, SVG Export Plug-In . SVG Version: 6.00 Build 0)  -->
<svg version="1.1" id="Camada_1" xmlns="http://www.w3.org/2000/svg" xmlns:xlink="http://www.w3.org/1999/xlink" x="0px" y="0px"
	 viewBox="0 0 771.6 230.9" style="enable-background:new 0 0 771.6 230.9;" xml:space="preserve">
<style type="text/css">
	.st0{fill:#FFD400;}
	.st1{fill:#FFFFFF;}
</style>
<g>
	<g>
		<path class="st0" d="M148.4,170.4c-2.9-7.9-6.5-17.7-9.6-27.8c-5.7-18.9-10.5-37.2-10.4-37.3c3.7-2.5,36.6-24.8,60.4-38.4
			c0.4-0.2,7.4-4.1,8-9c0.2-1.3,0-2.7-0.4-3.9c-1.2-3.6-4.2-6.8-12.7-7.3c-6.6-0.5-18.3-1.2-31.1-0.5c-12.5,0.4-25.9,1.8-35.9,3.5
			c0,0-4-24.5-5.4-34.6c-0.1-0.6-0.8-4.5-1.8-6.1c-1-1.7-2.8-3.2-5.6-3.7c-3-0.5-5.2,0.3-6.7,1.3c-1.6,1.1-3.6,4.2-4.2,5
			c-6.4,9-24.3,35.5-33.3,50.6c0,0-28,8.6-45,15.7c-5,2.1-5.5,4.6-5.6,5.9c-0.1,1,0,3.6,3.9,6.9c5,4.2,20.6,17,20.6,17
			c-5.5,8.7-26.7,51.9-28.7,63.9c-0.6,3.5-0.5,7,2,10.3c1.6,2.1,4.4,3.5,7.4,3.6c3.6,0.1,8.5-3.8,10.6-5.3
			c16.8-12,49.8-37.3,49.8-37.3c12.4,11.1,38.6,35.1,52.4,48c1.6,1.5,6.7,6.2,11.7,6.3c9.5,0.3,12.6-7.8,13-10.7
			C152.6,180.2,149.4,173,148.4,170.4z M19.7,85.8c-0.4-0.3-1.6-1.3-1.6-2.5c0.1-0.6,0.4-1.2,1.1-1.7c0.3-0.2,1.3-0.6,1.5-0.7
			c2.9-1.1,16-5.8,33.8-10.1c-4.6,8-7.7,13-9.8,16.8c-5,8.7-4.9,9-7,12.6C37.8,100.1,23.3,88.6,19.7,85.8z M27.7,155.3
			c-0.4,0.3-2.2,1.5-2.7,1.7c-3.7,1.8-4.5-0.4-4.7-1.3c-0.4-1.8,1.1-5.1,1.3-5.4c3.5-7.7,17.8-37.8,17.8-37.8s17.6,15,22,18.9
			C61.3,131.3,35.9,149.7,27.7,155.3z M118.8,144.2c2.9,10.1,6.3,20.6,8,25.7c0.4,1.3,0.5,2.6,0.1,3.4c-0.4,0.7-1.3,1-2.5,0.5
			c-0.5-0.2-1.9-1.4-2-1.5c-6.4-5.6-39.7-34.9-39.7-34.9l28.7-20.3C111.3,117.1,115,131.4,118.8,144.2z M68.8,125.7
			c0,0-24.1-20.1-25.4-21.2c0,0,15.3-28.6,20-35.9c2.9-0.8,25.3-4.9,35.9-6.2c0,0,3.1,17.4,7.8,37.4
			C107.2,99.9,76.1,120.5,68.8,125.7z M135.9,59.2c10.3-0.5,21.2-0.6,22.1-0.6c2.6,0,4.8,0.3,5.2,1.4c0.5,1.5-0.6,3.2-2.5,4.6
			c-0.4,0.3-6.6,4.4-13.3,8.9c-10.2,6.9-23,15.2-23,15.2c0.1,0.2-4.9-22.2-5.8-28.2C118.6,60.4,127.1,59.6,135.9,59.2z M88.9,29.9
			c0.2-0.3,1.9-2.4,3.2-2.4c1.2,0,1.7,1.5,1.9,2.3c0.3,1.9,0.7,4.6,1.4,9.1c1.1,6.5,2.3,14.1,2.3,14.1c-6.9,1.4-23.4,5.2-28.8,6.8
			C74.6,50.2,85.4,34.3,88.9,29.9z"/>
	</g>
	<g>
		<path class="st1" d="M216.2,107c-1.9-3.5-2.8-8-2.8-13.3V53.4h13.5v39.5c0,3.3,0.7,6.3,1.9,8.5c2.3,4.2,6.6,6.5,12.6,6.5
			c5.9,0,10.2-2.3,12.5-6.5c1.3-2.3,1.9-5.2,1.9-8.6V53.4H269v40.3c0,5.3-1,9.8-2.8,13.3c-4.2,8.2-13.1,12.1-25,12.1
			C229.1,119.1,220.4,115.3,216.2,107z"/>
		<path class="st1" d="M326.5,118.1l-27.1-35.4c-2.4-3.1-4.4-6.1-6.7-8.9h-0.2c0.3,2.4,0.3,6.4,0.3,9.5v34.9h-13.4V53.4h13.4
			l26,34.1c2.6,3.2,4.6,6.1,6.6,8.9h0.2c-0.2-3.4-0.2-7.8-0.2-10.8V53.4h13.4v64.7H326.5z"/>
		<path class="st1" d="M349.8,53.4h13.4v64.7h-13.4V53.4z"/>
		<path class="st1" d="M374.1,53.4H391c5.9,0,10.8,0.8,14.6,2.7c7.1,3.3,10.9,9.7,10.9,18.7c0,7.6-3.2,15.6-12.9,19.3
			c-3.6,1.4-8.1,2.3-13.8,2.3h-2.3v21.7h-13.4V53.4z M390.6,85.5c2.8,0,5.2-0.4,7-1.3c3.4-1.6,5-4.9,5-9.4c0-3.7-1.5-7.1-4.7-9
			c-1.9-1.1-4.2-1.5-7.5-1.5h-2.8v21.2H390.6z"/>
		<path class="st1" d="M424.9,53.4h37.4l-3.5,11.4h-20.4v14.9h20.5V91h-20.5v15.7h23.9v11.4h-37.3V53.4z M437.6,35.4H448l9.9,14.4
			h-10.3l-4.9-7l-4.7,7h-10.2L437.6,35.4z"/>
	</g>
	<g>
		<path class="st1" d="M406.9,163.8c-3.2,1.7-6.3,2.3-9.3,2.3c-9.7,0-15.4-6.7-15.4-15.9c0-9.2,6.4-16.5,16-16.5
			c3.4,0,6.3,0.8,8,1.7v4c-2.3-1.2-4.7-2-7.9-2c-7.2,0-11.6,5.7-11.6,12.6c0,7.4,4.4,12.5,11.3,12.5c3,0,5.4-0.9,7.6-2.1
			L406.9,163.8z"/>
		<path class="st1" d="M413.8,155.2c0,4.3,2.7,7.4,7.2,7.4c2.2,0,4.1-0.7,5.7-1.5l1.3,2.9c-2.1,1.3-4.8,2.1-7.4,2.1
			c-7.5,0-11-5.5-11-12c0-6.9,3.8-11.8,9.6-11.8c6,0,9.4,4.6,9.4,11.8v1.1H413.8z M424.1,152c0-3.2-1.6-6.3-5-6.3
			c-3.3,0-5.2,2.9-5.3,6.3H424.1z"/>
		<path class="st1" d="M433.1,142.9h3.6l0.5,2.8c2.5-2,5-3.4,7.9-3.4c3.6,0,6.9,2.1,6.9,8.1v15.2h-4.2v-13.8c0-3.2-0.8-5.7-3.9-5.7
			c-2.3,0-4.5,1.3-6.5,3.1v16.5h-4.2V142.9z"/>
		<path class="st1" d="M459.5,160.5v-14.2h-3.9v-3.4h3.9v-5.2l4.2-1.3v6.5h6.8l-1.2,3.4h-5.7v13.4c0,2,0.8,2.9,2.3,2.9
			c1.4,0,2.7-0.6,3.6-1.2l1.4,2.9c-1.5,1.1-3.7,1.8-6,1.8C461.5,166.1,459.5,164.1,459.5,160.5z"/>
		<path class="st1" d="M474.6,142.9h3.6l0.5,2.8c2.4-2.5,4.3-3.4,6.4-3.4c1,0,2,0.2,2.7,0.7l-1.5,3.7c-0.7-0.4-1.4-0.6-2.2-0.6
			c-1.6,0-3.1,0.9-5.2,2.9v16.5h-4.2V142.9z"/>
		<path class="st1" d="M488.6,154.2c0-6.7,4.3-11.9,10.8-11.9c6.4,0,10.8,5.2,10.8,11.9c0,6.7-4.3,11.9-10.8,11.9
			C492.9,166.1,488.6,160.9,488.6,154.2z M505.8,154.2c0-4.9-2.4-8.4-6.4-8.4c-4,0-6.4,3.5-6.4,8.4c0,4.9,2.4,8.4,6.4,8.4
			C503.4,162.6,505.8,159.1,505.8,154.2z"/>
		<path class="st1" d="M526.9,159.6c-0.6-1.5-0.9-3.4-0.9-5.4V134h4.3v19.8c0,1.6,0.2,3.1,0.7,4.3c1.1,2.8,3.5,4.3,7.2,4.3
			c3.7,0,6.1-1.5,7.3-4.3c0.5-1.2,0.7-2.7,0.7-4.5V134h4.3v20.2c0,2.1-0.3,4-1,5.5c-1.7,4.2-5.6,6.4-11.2,6.4
			C532.4,166.1,528.5,163.8,526.9,159.6z"/>
		<path class="st1" d="M556.9,142.9h3.6l0.5,2.8c2.5-2,5-3.4,7.9-3.4c3.6,0,6.9,2.1,6.9,8.1v15.2h-4.2v-13.8c0-3.2-0.8-5.7-3.9-5.7
			c-2.3,0-4.5,1.3-6.5,3.1v16.5h-4.2V142.9z"/>
		<path class="st1" d="M581.2,135.5c0-1.5,1.1-2.7,2.7-2.7c1.6,0,2.8,1.2,2.8,2.7c0,1.5-1.2,2.7-2.8,2.7
			C582.4,138.2,581.2,137,581.2,135.5z M581.8,142.9h4.2v22.7h-4.2V142.9z"/>
		<path class="st1" d="M589.6,142.9h4.4l6.3,17.3h0.1l6.1-17.3h4.4l-8.9,22.9h-3.4L589.6,142.9z"/>
		<path class="st1" d="M616.8,155.2c0,4.3,2.7,7.4,7.2,7.4c2.2,0,4.1-0.7,5.7-1.5l1.3,2.9c-2.1,1.3-4.8,2.1-7.4,2.1
			c-7.5,0-11-5.5-11-12c0-6.9,3.8-11.8,9.6-11.8c6,0,9.4,4.6,9.4,11.8v1.1H616.8z M627.1,152c0-3.2-1.6-6.3-5-6.3
			c-3.3,0-5.2,2.9-5.3,6.3H627.1z"/>
		<path class="st1" d="M636.1,142.9h3.6l0.5,2.8c2.4-2.5,4.3-3.4,6.4-3.4c1,0,2,0.2,2.7,0.7l-1.5,3.7c-0.7-0.4-1.4-0.6-2.2-0.6
			c-1.6,0-3.1,0.9-5.2,2.9v16.5h-4.2V142.9z"/>
		<path class="st1" d="M650.7,160.9c1.4,0.9,3.4,1.7,5.9,1.7c2.5,0,4.6-0.9,4.6-3.3c0-4.6-10.7-3.1-10.7-10.6c0-3.6,2.8-6.4,8-6.4
			c2.3,0,4.3,0.5,6,1.1v3.6c-1.6-0.7-3.5-1.3-5.8-1.3c-2.1,0-4,0.6-4,2.8c0,4.6,10.7,3,10.7,10.8c0,4.7-3.9,6.8-8.6,6.8
			c-3.2,0-5.8-1-7.3-2L650.7,160.9z"/>
		<path class="st1" d="M669.6,135.5c0-1.5,1.1-2.7,2.7-2.7c1.6,0,2.8,1.2,2.8,2.7c0,1.5-1.2,2.7-2.8,2.7
			C670.7,138.2,669.6,137,669.6,135.5z M670.2,142.9h4.2v22.7h-4.2V142.9z"/>
		<path class="st1" d="M682.4,160.5v-14.2h-3.9v-3.4h3.9v-5.2l4.2-1.3v6.5h6.8l-1.2,3.4h-5.7v13.4c0,2,0.8,2.9,2.3,2.9
			c1.4,0,2.7-0.6,3.6-1.2l1.4,2.9c-1.5,1.1-3.7,1.8-6,1.8C684.5,166.1,682.4,164.1,682.4,160.5z"/>
		<path class="st1" d="M710.4,163.2c-1.7,1.6-3.9,2.9-6.8,2.9c-4.2,0-7.3-2.7-7.3-7.1c0-3,1.5-5,3.8-6.1c1.6-0.8,3.4-1.1,5.7-1.2
			l4.2-0.1v-1.2c0-3.2-2-4.6-4.7-4.6c-2.6,0-4.6,0.8-6.2,1.8l-1.5-2.9c2.6-1.6,5.5-2.3,8.2-2.3c5.1,0,8.4,2.4,8.4,7.9v8.3
			c0,3.9,0.1,6,0.4,7.1h-3.7L710.4,163.2z M706.4,154.7c-1.8,0-3,0.3-4,0.8c-1.2,0.7-1.8,1.8-1.8,3.2c0,2.4,1.5,3.9,3.9,3.9
			c2.6,0,4.5-1.6,5.5-2.6v-5.5L706.4,154.7z M706.3,133.1h4.7l-4.3,7.1h-3.2L706.3,133.1z"/>
		<path class="st1" d="M719.9,142.9h3.6l0.5,2.8c2.4-2.5,4.3-3.4,6.4-3.4c1,0,2,0.2,2.7,0.7l-1.5,3.7c-0.7-0.4-1.4-0.6-2.2-0.6
			c-1.6,0-3.1,0.9-5.2,2.9v16.5h-4.2V142.9z"/>
		<path class="st1" d="M735.5,135.5c0-1.5,1.1-2.7,2.7-2.7c1.6,0,2.8,1.2,2.8,2.7c0,1.5-1.2,2.7-2.8,2.7
			C736.6,138.2,735.5,137,735.5,135.5z M736.1,142.9h4.2v22.7h-4.2V142.9z"/>
		<path class="st1" d="M745.3,154.2c0-6.7,4.3-11.9,10.8-11.9c6.4,0,10.8,5.2,10.8,11.9c0,6.7-4.3,11.9-10.8,11.9
			C749.6,166.1,745.3,160.9,745.3,154.2z M762.5,154.2c0-4.9-2.4-8.4-6.4-8.4c-4,0-6.4,3.5-6.4,8.4c0,4.9,2.4,8.4,6.4,8.4
			C760.1,162.6,762.5,159.1,762.5,154.2z"/>
		<path class="st1" d="M381.5,206c0-7.3,5.2-12.2,12-12.2c1.2,0,2.5,0.1,3.6,0.4v-11.1h4.2v32.9c-1.8,1-4.7,1.6-7.6,1.6
			C386.9,217.5,381.5,213.5,381.5,206z M397.1,213.4v-15.6c-1.1-0.3-1.9-0.5-3.3-0.5c-4.4,0-7.9,3.1-7.9,8.5c0,5,3,8.1,7.9,8.1
			C394.8,213.9,396.2,213.8,397.1,213.4z"/>
		<path class="st1" d="M412.8,206.6c0,4.3,2.7,7.4,7.2,7.4c2.2,0,4.1-0.7,5.7-1.5l1.3,2.9c-2.1,1.3-4.8,2.1-7.4,2.1
			c-7.5,0-11-5.5-11-12c0-6.9,3.8-11.8,9.6-11.8c6,0,9.4,4.6,9.4,11.8v1.1H412.8z M423.1,203.5c0-3.2-1.6-6.3-5-6.3
			c-3.3,0-5.2,2.9-5.3,6.3H423.1z"/>
		<path class="st1" d="M439.1,221.8c0.8,0.3,1.8,0.4,2.5,0.4c3.5,0,4.1-2.1,4.1-5.1v-31.7h4.3v32.5c0,4.7-2.4,8-8.2,8
			c-1.4,0-2.6-0.2-3.6-0.5L439.1,221.8z"/>
		<path class="st1" d="M455.6,205.7c0-6.7,4.3-11.9,10.8-11.9c6.4,0,10.8,5.2,10.8,11.9c0,6.7-4.3,11.9-10.8,11.9
			C459.9,217.5,455.6,212.3,455.6,205.7z M472.8,205.7c0-4.9-2.4-8.4-6.4-8.4c-4,0-6.4,3.5-6.4,8.4c0,4.8,2.4,8.4,6.4,8.4
			C470.4,214,472.8,210.5,472.8,205.7z"/>
		<path class="st1" d="M494.6,214.6c-1.7,1.6-3.9,2.9-6.8,2.9c-4.2,0-7.3-2.7-7.3-7.1c0-3,1.5-5,3.8-6.1c1.6-0.8,3.4-1.1,5.7-1.2
			l4.2-0.1v-1.2c0-3.2-2-4.6-4.7-4.6c-2.6,0-4.6,0.8-6.2,1.8l-1.5-2.9c2.6-1.6,5.5-2.3,8.2-2.3c5.1,0,8.4,2.4,8.4,7.9v8.3
			c0,3.9,0.1,6,0.4,7.1h-3.6L494.6,214.6z M483.1,189.3c0-2.4,1.6-3.8,3.6-3.8c2.6,0,4.6,2.3,6.1,2.3c1,0,1.2-0.8,1.2-2h2.9v1.3
			c0,2.4-1.5,3.7-3.6,3.7c-2.6,0-4.6-2.2-6.2-2.2c-1,0-1.2,0.8-1.2,1.9h-2.9V189.3z M490.6,206.2c-1.8,0-3,0.3-4,0.8
			c-1.2,0.7-1.8,1.8-1.8,3.2c0,2.4,1.5,3.9,3.9,3.9c2.6,0,4.5-1.6,5.5-2.6V206L490.6,206.2z"/>
		<path class="st1" d="M503,205.7c0-6.7,4.3-11.9,10.8-11.9c6.4,0,10.8,5.2,10.8,11.9c0,6.7-4.3,11.9-10.8,11.9
			C507.2,217.5,503,212.3,503,205.7z M520.1,205.7c0-4.9-2.4-8.4-6.4-8.4c-4,0-6.4,3.5-6.4,8.4c0,4.8,2.4,8.4,6.4,8.4
			C517.7,214,520.1,210.5,520.1,205.7z"/>
		<path class="st1" d="M540.6,185.4h6.5c3.1,0,5.2,0.5,7,1.4c3,1.6,4.8,4.6,4.8,8.7c0,3.6-1.6,7.2-5.6,8.9c-1.6,0.7-3.7,1.2-6.5,1.2
			h-1.8V217h-4.3V185.4z M547,202.1c1.9,0,3.3-0.3,4.3-0.9c2.1-1.1,3-3,3-5.7c0-2.5-1-4.5-2.8-5.6c-1.1-0.6-2.4-1-4.5-1h-2.2v13.2
			H547z"/>
		<path class="st1" d="M566.2,206.6c0,4.3,2.7,7.4,7.2,7.4c2.2,0,4.1-0.7,5.7-1.5l1.3,2.9c-2.1,1.3-4.8,2.1-7.4,2.1
			c-7.5,0-11-5.5-11-12c0-6.9,3.8-11.8,9.6-11.8c6,0,9.4,4.6,9.4,11.8v1.1H566.2z M576.5,203.5c0-3.2-1.6-6.3-5-6.3
			c-3.3,0-5.2,2.9-5.3,6.3H576.5z"/>
		<path class="st1" d="M585,212.3c1.4,0.9,3.4,1.7,5.9,1.7c2.5,0,4.6-0.9,4.6-3.3c0-4.6-10.7-3.1-10.7-10.6c0-3.6,2.8-6.4,8-6.4
			c2.3,0,4.3,0.5,6,1.1v3.6c-1.6-0.7-3.5-1.3-5.8-1.3c-2.1,0-4,0.6-4,2.8c0,4.6,10.7,3,10.7,10.8c0,4.7-3.9,6.8-8.6,6.8
			c-3.2,0-5.8-1-7.3-2L585,212.3z"/>
		<path class="st1" d="M603.6,212.3c1.4,0.9,3.4,1.7,5.9,1.7c2.5,0,4.6-0.9,4.6-3.3c0-4.6-10.7-3.1-10.7-10.6c0-3.6,2.8-6.4,8-6.4
			c2.3,0,4.3,0.5,6,1.1v3.6c-1.6-0.7-3.5-1.3-5.8-1.3c-2.1,0-4,0.6-4,2.8c0,4.6,10.7,3,10.7,10.8c0,4.7-3.9,6.8-8.6,6.8
			c-3.2,0-5.8-1-7.3-2L603.6,212.3z"/>
		<path class="st1" d="M621.5,205.7c0-6.7,4.3-11.9,10.8-11.9c6.4,0,10.8,5.2,10.8,11.9c0,6.7-4.3,11.9-10.8,11.9
			C625.8,217.5,621.5,212.3,621.5,205.7z M638.7,205.7c0-4.9-2.4-8.4-6.4-8.4c-4,0-6.4,3.5-6.4,8.4c0,4.8,2.4,8.4,6.4,8.4
			C636.3,214,638.7,210.5,638.7,205.7z"/>
		<path class="st1" d="M660.4,214.6c-1.7,1.6-3.9,2.9-6.8,2.9c-4.2,0-7.3-2.7-7.3-7.1c0-3,1.5-5,3.8-6.1c1.6-0.8,3.4-1.1,5.7-1.2
			l4.2-0.1v-1.2c0-3.2-2-4.6-4.7-4.6c-2.6,0-4.6,0.8-6.2,1.8l-1.5-2.9c2.6-1.6,5.5-2.3,8.2-2.3c5.1,0,8.4,2.4,8.4,7.9v8.3
			c0,3.9,0.1,6,0.4,7.1h-3.6L660.4,214.6z M656.4,206.2c-1.8,0-3,0.3-4,0.8c-1.2,0.7-1.8,1.8-1.8,3.2c0,2.4,1.5,3.9,3.9,3.9
			c2.6,0,4.5-1.6,5.5-2.6V206L656.4,206.2z"/>
	</g>
	<g>
		<g>
			<path class="st1" d="M263.6,146.6h-31.5l-2.4,16.4c1.9-0.3,3.5-0.4,5.9-0.4c7.2,0,14.4,1.6,19.9,5.3c6.2,3.9,10.7,10.8,10.7,20.8
				c0,15.6-13,28.3-33.1,28.3c-9.4,0-17.4-2.4-21.7-4.8l3.1-11.7c3.5,1.9,10.6,4.3,18,4.3c9.1,0,17.7-5.2,17.7-15
				c0-9.3-6.9-15.5-23.3-15.5c-4.5,0-7.9,0.3-11.2,0.8l5.4-41.3h42.3V146.6z"/>
		</g>
		<path class="st1" d="M288.5,189.2c-0.7-3.9-1-8.6-1-14.1c0-18.9,3.8-29,13.6-29c9.8,0,13.6,10.1,13.6,29c0,5.4-0.3,10.1-1,14.1
			h15.4c0.8-4.2,1.2-8.9,1.2-14.1c0-27-11.2-41.4-29.2-41.4c-18.1,0-29.2,14.4-29.2,41.4c0,5.2,0.4,9.8,1.2,14.1H288.5z"/>
		<g>
			<path class="st1" d="M285,214.7c-1.6,1.5-3.7,2.6-6.5,2.6c-4.3,0-7.5-2.9-7.5-7.2c0-3,1.5-4.9,3.8-6.1c1.6-0.8,3.5-1.2,5.8-1.3
				l3.9-0.1v-0.7c0-2.6-1.7-3.8-4.3-3.8c-2.2,0-4.3,0.7-5.9,1.6l-1.9-3.7c2.7-1.5,5.6-2.2,8.7-2.2c6,0,9,2.8,9,8.2v9.1
				c0,2.6,0.1,4.6,0.4,5.8h-4.8L285,214.7z M281.4,206.5c-1.5,0-2.5,0.3-3.3,0.7c-1,0.5-1.4,1.4-1.4,2.6c0,2,1.3,3.1,3.3,3.1
				c2.1,0,3.6-1,4.4-1.7v-4.8L281.4,206.5z"/>
			<path class="st1" d="M292.3,194.4h4.9l0.6,2.5c2.4-1.9,4.9-3.1,7.7-3.1c3.6,0,7.2,1.8,7.2,8.2v14.9H307v-13.1c0-2.8-0.6-5-3.5-5
				c-1.9,0-3.9,1-5.5,2.4v15.7h-5.7V194.4z"/>
			<path class="st1" d="M316.1,205.5c0-6.8,4.5-11.8,11.2-11.8c6.7,0,11.3,5,11.3,11.8c0,6.8-4.6,11.8-11.3,11.8
				C320.7,217.3,316.1,212.3,316.1,205.5z M332.8,205.5c0-4.1-1.9-7.2-5.4-7.2c-3.6,0-5.4,3-5.4,7.2c0,4.2,1.9,7.2,5.4,7.2
				C330.9,212.8,332.8,209.7,332.8,205.5z"/>
			<path class="st1" d="M339.9,211c1.7,1.1,3.9,1.9,6.1,1.9c2.3,0,4-0.7,4-2.4c0-3.8-10.6-2.4-10.6-9.9c0-4,3.2-6.8,8.5-6.8
				c2.5,0,4.8,0.4,6.6,1.1v4.8c-1.9-0.8-4-1.4-6.4-1.4c-1.9,0-3.2,0.6-3.2,2c0,3.6,10.6,2.2,10.6,10c0,4.9-4.3,7-9.1,7
				c-3.5,0-6.4-1-8.3-2.2L339.9,211z"/>
		</g>
	</g>
</g>
</svg>
